<svg xmlns="http://www.w3.org/2000/svg" viewBox="0 0 368.65 74.76"><defs><style>.cls-1{fill:#eb5e1d;}.cls-2{fill:#14375a;}.cls-3{fill:#e6332a;}.cls-4{fill:#7081a9;}</style></defs><title>Middel 1</title><g id="Laag_2" data-name="Laag 2"><g id="Layer_1" data-name="Layer 1"><path class="cls-1" d="M116.71,27v5.37q0,.37-.3.41a.49.49,0,0,1-.49-.31q-.15-.32-.59-1.06a7.82,7.82,0,0,0-1.23-1.52,7.68,7.68,0,0,0-2-1.37,6.27,6.27,0,0,0-2.83-.59,10.57,10.57,0,0,0-2.12.2,4.86,4.86,0,0,0-1.64.63,3.11,3.11,0,0,0-1.06,1.11,3.29,3.29,0,0,0-.38,1.64V41.9a.38.38,0,0,0,.37.37h3.15a3.34,3.34,0,0,0,1.81-.44,3.74,3.74,0,0,0,1.11-1,4.2,4.2,0,0,0,.58-1.17,8,8,0,0,0,.22-.87.37.37,0,0,1,.16-.28.43.43,0,0,1,.27-.07.4.4,0,0,1,.25.12.42.42,0,0,1,.11.31V47.2a.41.41,0,0,1-.11.31.39.39,0,0,1-.25.12.42.42,0,0,1-.27-.07.37.37,0,0,1-.16-.28,7.94,7.94,0,0,0-.22-.87,4.2,4.2,0,0,0-.58-1.17,3.75,3.75,0,0,0-1.11-1,3.34,3.34,0,0,0-1.81-.44h-3.15a.38.38,0,0,0-.37.37V55.21a3.23,3.23,0,0,0,.49,1.87,4,4,0,0,0,1.15,1.13,4.34,4.34,0,0,0,1.29.58q.64.16.94.21a.61.61,0,0,1,.33.17.34.34,0,0,1,.1.26.38.38,0,0,1-.14.25.54.54,0,0,1-.37.11H92.16a.54.54,0,0,1-.37-.11.37.37,0,0,1-.14-.25.33.33,0,0,1,.1-.26.62.62,0,0,1,.33-.17q.3,0,.94-.21a4.35,4.35,0,0,0,1.29-.58,4.05,4.05,0,0,0,1.15-1.13A3.23,3.23,0,0,0,96,55.21V31.11a3.25,3.25,0,0,0-.49-1.86,3.86,3.86,0,0,0-1.15-1.13A4.85,4.85,0,0,0,93,27.53q-.64-.17-.94-.22a.48.48,0,0,1-.33-.16.35.35,0,0,1,0-.52.54.54,0,0,1,.37-.11h24Q116.71,26.52,116.71,27Z"/><path class="cls-1" d="M131.12,37a5.17,5.17,0,0,1,1.75.26,3.19,3.19,0,0,1,1.16.69,2.53,2.53,0,0,1,.64,1,3.76,3.76,0,0,1,.2,1.22,2.34,2.34,0,0,1-.75,1.85,2.92,2.92,0,0,1-2,.67,2.78,2.78,0,0,1-1.5-.35,4.76,4.76,0,0,1-.92-.75l-.7-.75a1,1,0,0,0-.79-.35,1.79,1.79,0,0,0-.9.28,2.57,2.57,0,0,0-.89,1.07,8.35,8.35,0,0,0-.68,2.17,19.11,19.11,0,0,0-.27,3.57v8.53a3.07,3.07,0,0,0,.33,1.55,2.63,2.63,0,0,0,.76.86,2.75,2.75,0,0,0,.85.41,5.33,5.33,0,0,0,.62.14.5.5,0,0,1,.28.16.28.28,0,0,1,.06.23.4.4,0,0,1-.14.22.45.45,0,0,1-.31.1H116.34a.45.45,0,0,1-.31-.1.4.4,0,0,1-.14-.22.28.28,0,0,1,.06-.23.5.5,0,0,1,.28-.16,5.35,5.35,0,0,0,.62-.14,2.76,2.76,0,0,0,.85-.41,2.63,2.63,0,0,0,.76-.86,3.07,3.07,0,0,0,.33-1.55V42.22a.36.36,0,0,0-.3-.39l-.36-.07-.7-.17-.73-.17-.41-.1c-.21,0-.32-.16-.33-.33s.11-.29.36-.36a21.46,21.46,0,0,0,2.08-.6q1.12-.38,2.25-.86t2.19-1a19.48,19.48,0,0,0,1.9-1.12.68.68,0,0,1,.46-.12q.23,0,.23.37v3.52a6.34,6.34,0,0,1,2.34-2.83A6.09,6.09,0,0,1,131.12,37Z"/><path class="cls-1" d="M142.33,46.73q-.39,0-.39.42a18.24,18.24,0,0,0,.44,4.31,8.19,8.19,0,0,0,1.29,2.94,5.09,5.09,0,0,0,2.12,1.69,7.43,7.43,0,0,0,2.94.54,8.7,8.7,0,0,0,2.28-.27,10,10,0,0,0,1.74-.63,9.55,9.55,0,0,0,1.21-.68,5.07,5.07,0,0,1,.69-.42.44.44,0,0,1,.54.06q.2.21,0,.63-.07.15-.33.58a7.32,7.32,0,0,1-.75,1,10.77,10.77,0,0,1-1.23,1.18,9.29,9.29,0,0,1-1.76,1.13,11.3,11.3,0,0,1-2.34.85,12,12,0,0,1-2.94.33,12.21,12.21,0,0,1-4.46-.78A9.35,9.35,0,0,1,138,57.37a10.18,10.18,0,0,1-2.19-3.6A13.84,13.84,0,0,1,135,49a13,13,0,0,1,1-5.15,11.51,11.51,0,0,1,2.51-3.76A10.84,10.84,0,0,1,146,37a10,10,0,0,1,3.39.53,8.94,8.94,0,0,1,2.54,1.38,8.39,8.39,0,0,1,1.77,1.9,12.16,12.16,0,0,1,1.13,2.08,9.88,9.88,0,0,1,.6,1.95,8.29,8.29,0,0,1,.17,1.45.37.37,0,0,1-.16.35.82.82,0,0,1-.43.1Zm-.27-1.63q0,.32.3.32h.49l1,0,1.29,0,1.32,0,1.08,0a4.6,4.6,0,0,0,.58,0,1.57,1.57,0,0,0,.83-.34,1.29,1.29,0,0,0,.43-1.11,8.15,8.15,0,0,0-.2-1.65,7,7,0,0,0-.63-1.77,4.72,4.72,0,0,0-1.1-1.42,2.39,2.39,0,0,0-1.63-.58,2.22,2.22,0,0,0-1.33.41,3.66,3.66,0,0,0-1,1.06,7,7,0,0,0-.68,1.44,15,15,0,0,0-.44,1.54q-.17.75-.26,1.38T142.06,45.1Z"/><path class="cls-1" d="M164.68,46.73q-.39,0-.39.42a18.24,18.24,0,0,0,.44,4.31A8.19,8.19,0,0,0,166,54.41a5.09,5.09,0,0,0,2.12,1.69,7.43,7.43,0,0,0,2.94.54,8.7,8.7,0,0,0,2.28-.27,10,10,0,0,0,1.74-.63,9.55,9.55,0,0,0,1.21-.68,5.07,5.07,0,0,1,.69-.42.44.44,0,0,1,.54.06q.2.21,0,.63-.07.15-.33.58a7.32,7.32,0,0,1-.75,1,10.77,10.77,0,0,1-1.23,1.18,9.29,9.29,0,0,1-1.76,1.13,11.3,11.3,0,0,1-2.34.85,12,12,0,0,1-2.94.33,12.21,12.21,0,0,1-4.46-.78,9.35,9.35,0,0,1-3.41-2.25,10.18,10.18,0,0,1-2.19-3.6,13.84,13.84,0,0,1-.78-4.78,13,13,0,0,1,1-5.15,11.51,11.51,0,0,1,2.51-3.76A10.84,10.84,0,0,1,168.35,37a10,10,0,0,1,3.39.53,8.94,8.94,0,0,1,2.54,1.38,8.39,8.39,0,0,1,1.77,1.9,12.16,12.16,0,0,1,1.13,2.08,9.88,9.88,0,0,1,.6,1.95,8.29,8.29,0,0,1,.17,1.45.37.37,0,0,1-.16.35.82.82,0,0,1-.43.1Zm-.27-1.63q0,.32.3.32h.49l1,0,1.29,0,1.32,0,1.08,0a4.6,4.6,0,0,0,.58,0,1.57,1.57,0,0,0,.83-.34,1.29,1.29,0,0,0,.43-1.11,8.15,8.15,0,0,0-.2-1.65,7,7,0,0,0-.63-1.77,4.72,4.72,0,0,0-1.1-1.42,2.39,2.39,0,0,0-1.63-.58,2.22,2.22,0,0,0-1.33.41,3.66,3.66,0,0,0-1,1.06,7,7,0,0,0-.68,1.44,15,15,0,0,0-.44,1.54q-.17.75-.26,1.38T164.41,45.1Z"/><path class="cls-1" d="M206.72,59.07a.49.49,0,0,1,.28.16.28.28,0,0,1,.06.23.4.4,0,0,1-.13.22.45.45,0,0,1-.31.1H197.7a.69.69,0,0,1-.43-.12.47.47,0,0,1-.16-.39V57.1a.21.21,0,0,0-.12-.22.18.18,0,0,0-.22.07q-.22.27-.74.85A6.92,6.92,0,0,1,194.61,59a9.61,9.61,0,0,1-2.22,1,10,10,0,0,1-3.09.43,10.45,10.45,0,0,1-3.45-.52,8.12,8.12,0,0,1-4.32-3.43,10.89,10.89,0,0,1-1.11-2.39,13.77,13.77,0,0,1-.57-2.51,18.73,18.73,0,0,1-.16-2.37,17.37,17.37,0,0,1,.68-5,10.51,10.51,0,0,1,2-3.86,9,9,0,0,1,3.43-2.46,12.46,12.46,0,0,1,4.84-.86,17,17,0,0,1,2.69.19,13.56,13.56,0,0,1,1.87.42,6.17,6.17,0,0,1,1.11.44l.42.23a.22.22,0,0,0,.23,0,.17.17,0,0,0,.11-.17v-10a.36.36,0,0,0-.3-.39l-.36-.07-.7-.17-.73-.17-.41-.1q-.32-.07-.33-.33c0-.17.11-.29.36-.36a21.46,21.46,0,0,0,2.08-.6q1.12-.38,2.25-.86t2.19-1a19.69,19.69,0,0,0,1.9-1.12.68.68,0,0,1,.46-.12q.23,0,.23.37V55.92a2.87,2.87,0,0,0,.39,1.59,3.17,3.17,0,0,0,.9.94,3.57,3.57,0,0,0,1,.47A5.43,5.43,0,0,0,206.72,59.07Zm-9.63-13.95a11.75,11.75,0,0,0-.09-1.36,9.85,9.85,0,0,0-.3-1.49,7.57,7.57,0,0,0-.57-1.44,5,5,0,0,0-.9-1.23,4.27,4.27,0,0,0-1.28-.87,4.11,4.11,0,0,0-1.7-.33,4.17,4.17,0,0,0-2.49.74,5.36,5.36,0,0,0-1.68,2,11,11,0,0,0-.94,3.06,23,23,0,0,0-.3,3.81q0,.54,0,1.47a17.54,17.54,0,0,0,.15,2,15.7,15.7,0,0,0,.43,2.14,6.75,6.75,0,0,0,.86,1.95A4.69,4.69,0,0,0,189.77,57a4.06,4.06,0,0,0,2.19.55,5.12,5.12,0,0,0,2.69-.62,4.54,4.54,0,0,0,1.55-1.5,5.33,5.33,0,0,0,.71-1.89,10.51,10.51,0,0,0,.17-1.76Z"/><path class="cls-1" d="M220,37a11.91,11.91,0,0,1,4.67.9,11.09,11.09,0,0,1,3.66,2.46A11.34,11.34,0,0,1,230.74,44a11.91,11.91,0,0,1,.86,4.53,11.33,11.33,0,0,1-.94,4.58,12.27,12.27,0,0,1-15.81,6.35A11.05,11.05,0,0,1,211.2,57a11.36,11.36,0,0,1-2.39-3.67,11.88,11.88,0,0,1-.86-4.55,11.36,11.36,0,0,1,.94-4.57A12,12,0,0,1,220,37Zm-.25,22.1a2.93,2.93,0,0,0,2.06-.81,6.18,6.18,0,0,0,1.45-2.23,14.84,14.84,0,0,0,.88-3.31,27.74,27.74,0,0,0,0-8.08,14.85,14.85,0,0,0-.87-3.31,6.19,6.19,0,0,0-1.45-2.23,3,3,0,0,0-4.12,0,6.31,6.31,0,0,0-1.47,2.23,14,14,0,0,0-.87,3.31,29,29,0,0,0,0,8.08,14,14,0,0,0,.88,3.31,6.3,6.3,0,0,0,1.47,2.23A2.92,2.92,0,0,0,219.78,59.1Z"/><path class="cls-1" d="M273.39,59.07a.5.5,0,0,1,.28.16.28.28,0,0,1,.06.23.4.4,0,0,1-.14.22.45.45,0,0,1-.31.1H261.72a.45.45,0,0,1-.31-.1.4.4,0,0,1-.14-.22.28.28,0,0,1,.06-.23.5.5,0,0,1,.28-.16,5.37,5.37,0,0,0,.62-.14,2.77,2.77,0,0,0,.85-.41,2.64,2.64,0,0,0,.76-.86,3.07,3.07,0,0,0,.33-1.55V44.71a16.34,16.34,0,0,0-.17-2,5.64,5.64,0,0,0-.57-1.8,3.27,3.27,0,0,0-3.18-1.81,3.67,3.67,0,0,0-1.76.37,2.81,2.81,0,0,0-1,.95,3.83,3.83,0,0,0-.52,1.29,8.5,8.5,0,0,0-.17,1.43v13a3.07,3.07,0,0,0,.33,1.55,2.64,2.64,0,0,0,.76.86,2.75,2.75,0,0,0,.85.41,5.33,5.33,0,0,0,.62.14.5.5,0,0,1,.28.16.28.28,0,0,1,.06.23.4.4,0,0,1-.14.22.44.44,0,0,1-.31.1H247.64a.44.44,0,0,1-.31-.1.39.39,0,0,1-.14-.22.28.28,0,0,1,.06-.23.49.49,0,0,1,.28-.16,5.37,5.37,0,0,0,.62-.14,2.75,2.75,0,0,0,.85-.41,2.65,2.65,0,0,0,.76-.86,3.07,3.07,0,0,0,.33-1.55V44.68a16.19,16.19,0,0,0-.17-2,5.63,5.63,0,0,0-.57-1.79,3.48,3.48,0,0,0-1.18-1.31,3.56,3.56,0,0,0-2-.51,3.66,3.66,0,0,0-1.77.37,2.94,2.94,0,0,0-1,.95,3.52,3.52,0,0,0-.52,1.31,9.77,9.77,0,0,0-.16,1.44V56.12a3.07,3.07,0,0,0,.33,1.55,2.64,2.64,0,0,0,.76.86,2.75,2.75,0,0,0,.85.41,5.32,5.32,0,0,0,.62.14.5.5,0,0,1,.28.16.28.28,0,0,1,.06.23.4.4,0,0,1-.14.22.45.45,0,0,1-.31.1H233.57a.45.45,0,0,1-.31-.1.4.4,0,0,1-.14-.22.28.28,0,0,1,.06-.23.5.5,0,0,1,.28-.16,5.33,5.33,0,0,0,.62-.14,2.77,2.77,0,0,0,.85-.41,2.64,2.64,0,0,0,.76-.86,3.07,3.07,0,0,0,.33-1.55V42.22a.36.36,0,0,0-.3-.39l-.36-.07-.7-.17-.73-.17-.41-.1c-.21,0-.32-.16-.33-.33s.11-.29.36-.36a21.42,21.42,0,0,0,2.08-.6q1.12-.38,2.25-.86t2.19-1A19.49,19.49,0,0,0,242,37a.68.68,0,0,1,.46-.12q.23,0,.23.37v1.82a10.58,10.58,0,0,1,2.65-1.47A10.09,10.09,0,0,1,249,37a12.49,12.49,0,0,1,2.49.22,7.46,7.46,0,0,1,1.89.63,5.52,5.52,0,0,1,1.37,1A5.3,5.3,0,0,1,255.7,40,10.6,10.6,0,0,1,257,38.92a9.16,9.16,0,0,1,1.63-1,10,10,0,0,1,2-.69A11,11,0,0,1,263.1,37a10.78,10.78,0,0,1,3.34.44,6.47,6.47,0,0,1,2.21,1.18,5,5,0,0,1,1.31,1.7,8.58,8.58,0,0,1,.64,2,12.58,12.58,0,0,1,.22,2.06q0,1,0,1.91v9.83a3.07,3.07,0,0,0,.33,1.55,2.64,2.64,0,0,0,.76.86,2.76,2.76,0,0,0,.85.41A5.33,5.33,0,0,0,273.39,59.07Z"/><path class="cls-2" d="M274.9,43.33a16.83,16.83,0,0,1,1.38-6.78A17.54,17.54,0,0,1,280.08,31a18.06,18.06,0,0,1,12.8-5.15,20,20,0,0,1,3.76.32,21.26,21.26,0,0,1,2.85.73,13.68,13.68,0,0,1,1.86.76,5.91,5.91,0,0,1,.75.43.64.64,0,0,1,.29.52v5.84a.37.37,0,0,1-.1.27.43.43,0,0,1-.22.12.34.34,0,0,1-.25,0,.53.53,0,0,1-.2-.22q-.47-1.11-1.12-2.39a11.07,11.07,0,0,0-1.64-2.38A8.33,8.33,0,0,0,296.52,28a6.91,6.91,0,0,0-3.24-.71,6.68,6.68,0,0,0-4.08,1.24,9.22,9.22,0,0,0-2.76,3.4A18.19,18.19,0,0,0,284.88,37a36.83,36.83,0,0,0-.49,6.17,20.24,20.24,0,0,0,.78,5.86,11.64,11.64,0,0,0,2.3,4.32A9.81,9.81,0,0,0,291.3,56a14.27,14.27,0,0,0,5.33.92,17.14,17.14,0,0,0,3.34-.34,12.6,12.6,0,0,0,3.39-1.21.46.46,0,0,1,.58.07.34.34,0,0,1,.07.26.55.55,0,0,1-.18.33,15,15,0,0,1-5,3.28,17.4,17.4,0,0,1-6.53,1.16,19.12,19.12,0,0,1-7.34-1.33,15.51,15.51,0,0,1-8.86-9.1A18.94,18.94,0,0,1,274.9,43.33Z"/><path class="cls-2" d="M326.77,57.52a.54.54,0,0,1,.54.14.45.45,0,0,1,0,.55,3.56,3.56,0,0,1-.48.64,3.6,3.6,0,0,1-.89.69,5.83,5.83,0,0,1-1.36.54,7.13,7.13,0,0,1-1.88.22,4.89,4.89,0,0,1-2.53-.6,3.5,3.5,0,0,1-1.42-1.39.26.26,0,0,0-.28-.17.52.52,0,0,0-.31.15l-.46.41a6.16,6.16,0,0,1-1.08.71,9.47,9.47,0,0,1-1.69.69,7.61,7.61,0,0,1-2.27.31,9.67,9.67,0,0,1-3.68-.62,6.91,6.91,0,0,1-2.42-1.59A5.83,5.83,0,0,1,305.27,56a7.63,7.63,0,0,1-.41-2.43,5.49,5.49,0,0,1,1.1-3.4A6.63,6.63,0,0,1,308.8,48a9.2,9.2,0,0,1,2-.53l2-.33q1-.17,2-.43a5.93,5.93,0,0,0,1.84-.85,3.25,3.25,0,0,0,1.27-1.58,5.84,5.84,0,0,0,.36-2,5.44,5.44,0,0,0-.21-1.52,4.2,4.2,0,0,0-.59-1.27,3.15,3.15,0,0,0-.89-.86,2.28,2.28,0,0,0-2.65.22,4,4,0,0,0-.78,1.31q-.28.76-.53,1.59a3.57,3.57,0,0,1-.79,1.42,2.73,2.73,0,0,1-1.15.7,4.23,4.23,0,0,1-1.34.23,3,3,0,0,1-1.18-.22,2.68,2.68,0,0,1-.89-.6,2.48,2.48,0,0,1-.55-.89,3.1,3.1,0,0,1-.18-1.07,3.49,3.49,0,0,1,.37-1.53,3.55,3.55,0,0,1,1.32-1.38,8.23,8.23,0,0,1,2.55-1,17.94,17.94,0,0,1,4.07-.38,17.13,17.13,0,0,1,4.67.55,8.17,8.17,0,0,1,3.15,1.61,6.12,6.12,0,0,1,1.77,2.62,10.61,10.61,0,0,1,.55,3.56q0,2.39-.15,4.48t-.21,3.71a17.75,17.75,0,0,0,.06,2.66q.12,1,.69,1.29a1.27,1.27,0,0,0,.62.11A5.64,5.64,0,0,0,326.77,57.52Zm-8.55-11a.19.19,0,0,0-.12-.2.18.18,0,0,0-.22.07l-.36.42q-.16.2-.43.47-.47.49-1,.92l-1,.88-1,.79a8.1,8.1,0,0,0-.9.86,5,5,0,0,0-.95,1.61A5.55,5.55,0,0,0,312,54.2a4.81,4.81,0,0,0,.2,1.34,3.62,3.62,0,0,0,.6,1.21,3.12,3.12,0,0,0,1,.86,3.2,3.2,0,0,0,1.52.33,2.55,2.55,0,0,0,1.44-.37,2.76,2.76,0,0,0,.86-.89,3.64,3.64,0,0,0,.43-1,3.92,3.92,0,0,0,.12-.83Z"/><path class="cls-2" d="M344.16,37a5.17,5.17,0,0,1,1.75.26,3.2,3.2,0,0,1,1.16.69,2.53,2.53,0,0,1,.64,1,3.75,3.75,0,0,1,.2,1.22,2.34,2.34,0,0,1-.75,1.85,2.92,2.92,0,0,1-2,.67,2.78,2.78,0,0,1-1.5-.35,4.76,4.76,0,0,1-.92-.75l-.7-.75a1,1,0,0,0-.79-.35,1.79,1.79,0,0,0-.9.28,2.56,2.56,0,0,0-.89,1.07,8.35,8.35,0,0,0-.68,2.17,19.07,19.07,0,0,0-.27,3.57v8.53a3.07,3.07,0,0,0,.33,1.55,2.64,2.64,0,0,0,.76.86,2.75,2.75,0,0,0,.85.41,5.32,5.32,0,0,0,.62.14.5.5,0,0,1,.28.16.28.28,0,0,1,.06.23.4.4,0,0,1-.14.22.45.45,0,0,1-.31.1H329.38a.45.45,0,0,1-.31-.1.4.4,0,0,1-.14-.22.28.28,0,0,1,.06-.23.5.5,0,0,1,.28-.16,5.33,5.33,0,0,0,.62-.14,2.77,2.77,0,0,0,.85-.41,2.64,2.64,0,0,0,.76-.86,3.07,3.07,0,0,0,.33-1.55V42.22a.36.36,0,0,0-.3-.39l-.36-.07-.7-.17-.73-.17-.41-.1c-.21,0-.32-.16-.33-.33s.11-.29.36-.36a21.42,21.42,0,0,0,2.08-.6q1.12-.38,2.25-.86t2.19-1a19.49,19.49,0,0,0,1.9-1.12.68.68,0,0,1,.46-.12q.23,0,.23.37v3.52a6.34,6.34,0,0,1,2.34-2.83A6.09,6.09,0,0,1,344.16,37Z"/><path class="cls-2" d="M355.37,46.73c-.26,0-.39.14-.39.42a18.21,18.21,0,0,0,.44,4.31,8.19,8.19,0,0,0,1.29,2.94,5.09,5.09,0,0,0,2.12,1.69,7.43,7.43,0,0,0,2.94.54,8.7,8.7,0,0,0,2.28-.27,10,10,0,0,0,1.74-.63,9.43,9.43,0,0,0,1.21-.68,5.1,5.1,0,0,1,.69-.42.44.44,0,0,1,.54.06q.2.21,0,.63c0,.1-.16.29-.33.58a7.31,7.31,0,0,1-.75,1,10.78,10.78,0,0,1-1.23,1.18,9.3,9.3,0,0,1-1.76,1.13,11.28,11.28,0,0,1-2.34.85,12,12,0,0,1-2.94.33,12.21,12.21,0,0,1-4.46-.78A9.35,9.35,0,0,1,351,57.37a10.17,10.17,0,0,1-2.19-3.6A13.83,13.83,0,0,1,348,49a13,13,0,0,1,1-5.15,11.52,11.52,0,0,1,2.51-3.76A10.84,10.84,0,0,1,359,37a10,10,0,0,1,3.39.53A9,9,0,0,1,365,38.91a8.4,8.4,0,0,1,1.77,1.9,12.13,12.13,0,0,1,1.13,2.08,9.91,9.91,0,0,1,.6,1.95,8.25,8.25,0,0,1,.17,1.45.37.37,0,0,1-.16.35.82.82,0,0,1-.43.1Zm-.27-1.63q0,.32.3.32h.49l1,0,1.29,0,1.32,0,1.08,0a4.58,4.58,0,0,0,.58,0,1.57,1.57,0,0,0,.83-.34,1.29,1.29,0,0,0,.43-1.11,8.11,8.11,0,0,0-.2-1.65,7,7,0,0,0-.63-1.77,4.72,4.72,0,0,0-1.1-1.42,2.39,2.39,0,0,0-1.63-.58,2.22,2.22,0,0,0-1.33.41,3.66,3.66,0,0,0-1,1.06,7,7,0,0,0-.68,1.44,14.8,14.8,0,0,0-.44,1.54q-.17.75-.26,1.38C355.15,44.57,355.12,44.89,355.1,45.1Z"/><polygon class="cls-2" points="17.96 10.96 34.41 25.19 27.97 19.35 27.83 19.49 18.47 11.34 11.81 4.72 8.17 1.42 0 10.06 2.04 29.25 8.98 20.84 17.96 10.96"/><polygon class="cls-1" points="27.97 19.35 34.41 25.19 36.65 27.13 55.05 9.82 45.68 0.63 36.73 10.42 36.83 10.51 27.97 19.35"/><polygon class="cls-3" points="8.32 1.26 8.17 1.42 11.81 4.72 8.32 1.26"/><polygon class="cls-2" points="36.83 47.79 36.72 64.75 36.83 64.86 73.32 28.6 63.42 20.06 36.83 47.79"/><polygon class="cls-4" points="36.38 64.39 2.04 29.25 36.72 64.75 36.83 47.79 36.38 64.39"/><polygon class="cls-3" points="61.16 15.39 63.3 17.34 71.9 8.3 64.23 0.63 70.62 7.02 61.16 15.39"/><polygon class="cls-1" points="55.05 9.82 55.19 9.96 61.16 15.39 55.27 9.61 55.05 9.82"/><polygon class="cls-3" points="55.27 9.61 61.16 15.39 61.16 15.39 70.62 7.02 64.23 0.63 45.68 0.63 55.05 9.82 55.27 9.61"/><polygon class="cls-1" points="36.73 10.42 24.87 0 36.65 10.51 36.73 10.42"/><polygon class="cls-1" points="27.97 19.35 36.83 10.51 36.73 10.42 36.65 10.51 24.87 0 8.32 1.26 11.81 4.72 27.97 19.35"/><polygon class="cls-1" points="18.47 11.34 27.83 19.49 27.97 19.35 11.81 4.72 18.47 11.34"/><polygon class="cls-4" points="36.83 47.79 8.98 20.84 2.04 29.25 36.38 64.39 36.83 47.79"/><polygon class="cls-4" points="80.17 20.74 74.9 18.8 71.52 21.09 81.45 21.22 80.17 20.75 80.17 20.74"/><polygon class="cls-2" points="75.7 16.43 67.78 14.68 74.26 18.56 75.69 16.44 75.7 16.43"/><polygon class="cls-3" points="74.28 18.57 74.28 18.57 74.26 18.56 74.28 18.57"/><polygon class="cls-4" points="85.51 16.2 83.64 15.66 85.39 16.84 85.51 16.2"/><polygon class="cls-4" points="85.6 16.98 84.42 18.12 85.16 19.07 85.61 16.98 85.6 16.98 85.6 16.98"/><polygon class="cls-2" points="77.14 16.34 75.7 16.43 77.45 16.82 74.28 18.57 74.9 18.8 77.58 16.98 77.14 16.34"/><polygon class="cls-3" points="74.26 18.56 74.26 18.56 74.26 18.56 74.26 18.56"/><polygon class="cls-2" points="77.58 16.98 74.9 18.8 80.17 20.74 77.58 16.98"/><polygon class="cls-2" points="75.7 16.43 75.69 16.44 74.26 18.56 74.26 18.56 74.28 18.57 77.45 16.82 75.7 16.43"/><polygon class="cls-2" points="85.6 16.98 85.39 16.84 85.39 16.84 83.64 15.66 82.73 15.8 83.56 18.94 84.42 18.12 84.13 17.75 85.6 16.98"/><polygon class="cls-3" points="85.39 16.84 83.64 15.66 85.39 16.84 85.39 16.84"/><polygon class="cls-2" points="85.6 16.98 84.13 17.75 84.42 18.12 85.6 16.98 85.6 16.98"/><polygon class="cls-4" points="80.6 16.12 82.73 15.8 82.57 15.19 72.98 10.27 77.14 16.34 80.58 16.1 80.6 16.12"/><polygon class="cls-1" points="81.45 21.22 83.56 18.94 81.46 21.21 81.45 21.22"/><polygon class="cls-1" points="81.46 21.21 80.17 20.74 80.17 20.75 81.45 21.22 81.46 21.21 81.46 21.21"/><polygon class="cls-4" points="81.46 21.21 83.56 18.94 82.81 18.23 81.46 21.21"/><polygon class="cls-4" points="77.77 16.85 81.89 17.36 80.58 16.12 80.6 16.12 80.58 16.1 77.14 16.34 77.58 16.98 77.77 16.85"/><polygon class="cls-4" points="77.77 16.85 77.58 16.98 80.17 20.74 81.46 21.21 81.46 21.21 82.81 18.23 81.89 17.36 77.77 16.85"/><polygon class="cls-4" points="80.6 16.12 81.91 17.36 83.14 17.51 82.81 18.22 83.56 18.94 82.73 15.8 80.6 16.12"/><polygon class="cls-4" points="83.14 17.51 81.91 17.36 82.81 18.22 83.14 17.51"/><polygon class="cls-1" points="82.81 18.23 83.56 18.94 82.81 18.22 82.81 18.23"/><polygon class="cls-1" points="81.89 17.36 81.91 17.36 80.6 16.12 80.58 16.12 81.89 17.36"/><polygon class="cls-1" points="82.81 18.23 82.81 18.22 81.91 17.36 81.89 17.36 82.81 18.23"/><polygon class="cls-1" points="77.12 9.44 77.13 9.43 76.39 8.14 76.32 8.18 76.26 7.89 76.05 7.53 76.02 7.46 71.42 5.59 77.12 9.44"/><polygon class="cls-1" points="78.39 2.13 77.01 4.24 80.9 6.25 78.39 2.13"/><polygon class="cls-1" points="76.32 8.18 76.39 8.14 76.26 7.89 76.32 8.18"/><polygon class="cls-3" points="85.72 7.14 83.52 5.69 82.93 6.36 85.72 7.14"/><polygon class="cls-1" points="80.5 9.07 82.93 6.36 82.02 6.1 83.49 5.67 83.52 5.69 83.53 5.67 82.15 5.58 80.99 6.31 80.5 9.06 80.5 9.07"/><polygon class="cls-1" points="82.02 6.1 82.93 6.36 83.52 5.69 83.49 5.67 82.02 6.1"/><polygon class="cls-3" points="76.17 7.5 75.84 6.04 77.01 4.24 74.34 2.86 76.02 7.46 76.14 7.5 76.17 7.5"/><polygon class="cls-3" points="80.92 6.32 80.99 6.3 80.9 6.25 80.93 6.3 80.92 6.32"/><polygon class="cls-3" points="76.14 7.5 76.02 7.46 76.05 7.53 76.14 7.5"/><polygon class="cls-3" points="76.17 7.5 80.92 6.32 80.93 6.3 80.9 6.25 77.01 4.24 75.84 6.04 76.17 7.5"/><polygon class="cls-3" points="76.17 7.5 76.14 7.5 76.17 7.52 76.17 7.5"/><polygon class="cls-3" points="77.13 9.44 78.69 8.53 77.13 9.43 77.13 9.44"/><polygon class="cls-3" points="80.89 6.37 80.99 6.31 80.99 6.3 80.92 6.32 80.89 6.37"/><polygon class="cls-3" points="79.65 8.78 79.1 8.1 78.64 7.78 78.78 7.7 78.25 7.04 76.93 7.82 78.69 8.53 80.5 9.07 80.5 9.07 80.5 9.07 80.5 9.07 79.77 8.56 79.65 8.78"/><polygon class="cls-3" points="76.39 8.14 77.13 9.43 78.69 8.53 76.93 7.82 76.39 8.14"/><polygon class="cls-3" points="76.14 7.5 76.05 7.53 76.26 7.89 76.17 7.52 76.14 7.5"/><polygon class="cls-3" points="79.65 8.78 79.77 8.56 79.1 8.1 79.65 8.78"/><polygon class="cls-3" points="76.93 7.82 78.25 7.04 78.78 7.7 80.89 6.37 80.92 6.32 76.17 7.5 76.17 7.52 76.93 7.82"/><polygon class="cls-3" points="76.17 7.52 76.26 7.89 76.39 8.14 76.93 7.82 76.17 7.52"/><polygon class="cls-3" points="78.64 7.78 79.1 8.1 78.78 7.7 78.64 7.78"/><polygon class="cls-3" points="79.77 8.56 80.5 9.07 80.5 9.06 80.99 6.31 80.89 6.37 79.77 8.56"/><polygon class="cls-3" points="79.1 8.1 79.77 8.56 80.89 6.37 78.78 7.7 79.1 8.1"/><polygon class="cls-1" points="86.35 13.57 86.28 13.29 86.08 12.92 86.05 12.85 81.45 10.98 87.15 14.83 87.15 14.82 86.42 13.53 86.35 13.57"/><polygon class="cls-1" points="88.42 7.53 87.04 9.63 90.93 11.64 88.42 7.53"/><polygon class="cls-1" points="86.35 13.57 86.42 13.53 86.28 13.29 86.35 13.57"/><polygon class="cls-3" points="93.54 11.09 92.95 11.75 95.75 12.53 93.54 11.09"/><polygon class="cls-1" points="93.52 11.07 93.54 11.09 93.56 11.07 92.17 10.97 91.02 11.7 90.53 14.46 90.53 14.46 92.95 11.75 92.05 11.49 93.52 11.07"/><polygon class="cls-1" points="93.52 11.07 92.05 11.49 92.95 11.75 93.54 11.09 93.52 11.07"/><polygon class="cls-3" points="90.94 11.71 91.02 11.69 90.93 11.64 90.95 11.69 90.94 11.71"/><polygon class="cls-3" points="86.2 12.89 85.87 11.43 87.04 9.63 84.37 8.25 86.05 12.85 86.17 12.89 86.2 12.89"/><polygon class="cls-3" points="86.17 12.89 86.05 12.85 86.08 12.92 86.17 12.89"/><polygon class="cls-3" points="86.2 12.89 90.94 11.71 90.95 11.69 90.93 11.64 87.04 9.63 85.87 11.43 86.2 12.89"/><polygon class="cls-3" points="87.16 14.83 88.71 13.93 87.15 14.82 87.16 14.83"/><polygon class="cls-3" points="89.68 14.17 89.13 13.49 88.67 13.18 88.81 13.09 88.27 12.43 86.95 13.21 88.71 13.93 90.52 14.46 90.53 14.46 90.53 14.46 90.53 14.46 89.79 13.95 89.68 14.17"/><polygon class="cls-3" points="86.2 12.89 86.17 12.89 86.2 12.91 86.2 12.89"/><polygon class="cls-3" points="90.92 11.76 91.02 11.7 91.02 11.69 90.94 11.71 90.92 11.76"/><polygon class="cls-3" points="86.42 13.53 87.15 14.82 88.71 13.93 86.95 13.21 86.42 13.53"/><polygon class="cls-3" points="86.17 12.89 86.08 12.92 86.28 13.29 86.2 12.91 86.17 12.89"/><polygon class="cls-3" points="89.68 14.17 89.79 13.95 89.13 13.49 89.68 14.17"/><polygon class="cls-3" points="86.2 12.89 86.2 12.91 86.95 13.21 88.27 12.43 88.81 13.09 90.92 11.76 90.94 11.71 86.2 12.89"/><polygon class="cls-3" points="86.28 13.29 86.42 13.53 86.95 13.21 86.2 12.91 86.28 13.29"/><polygon class="cls-3" points="88.67 13.18 89.13 13.49 88.81 13.09 88.67 13.18"/><polygon class="cls-3" points="91.02 11.7 90.92 11.76 89.79 13.95 90.53 14.46 90.53 14.46 91.02 11.7"/><polygon class="cls-3" points="89.13 13.49 89.79 13.95 90.92 11.76 88.81 13.09 89.13 13.49"/><polygon class="cls-4" points="76.44 26.68 76.41 26.51 76.29 26.3 76.27 26.26 73.64 25.2 76.9 27.39 76.9 27.39 76.48 26.65 76.44 26.68"/><polygon class="cls-4" points="77.62 23.22 76.84 24.43 79.06 25.57 77.62 23.22"/><polygon class="cls-1" points="76.44 26.68 76.48 26.65 76.41 26.51 76.44 26.68"/><polygon class="cls-2" points="80.22 25.63 81.82 26.08 80.55 25.25 80.22 25.63"/><polygon class="cls-4" points="80.54 25.24 80.55 25.25 80.56 25.24 79.77 25.19 79.11 25.61 78.83 27.18 78.83 27.18 80.22 25.63 79.7 25.49 80.54 25.24"/><polygon class="cls-4" points="80.54 25.24 79.7 25.49 80.22 25.63 80.55 25.25 80.54 25.24"/><polygon class="cls-3" points="79.07 25.61 79.11 25.6 79.06 25.57 79.07 25.6 79.07 25.61"/><polygon class="cls-2" points="76.35 26.29 76.17 25.45 76.84 24.43 75.31 23.64 76.27 26.26 76.34 26.29 76.35 26.29"/><polygon class="cls-3" points="76.34 26.29 76.27 26.26 76.29 26.3 76.34 26.29"/><polygon class="cls-2" points="76.35 26.29 79.07 25.61 79.07 25.6 79.06 25.57 76.84 24.43 76.17 25.45 76.35 26.29"/><polygon class="cls-3" points="76.35 26.29 76.34 26.29 76.36 26.3 76.35 26.29"/><polygon class="cls-3" points="79.05 25.64 79.11 25.61 79.11 25.6 79.07 25.61 79.05 25.64"/><polygon class="cls-2" points="78.34 27.02 78.03 26.63 77.77 26.45 77.85 26.4 77.54 26.02 76.79 26.47 77.79 26.88 78.83 27.18 78.83 27.18 78.83 27.18 78.83 27.18 78.41 26.89 78.34 27.02"/><polygon class="cls-3" points="76.9 27.39 77.79 26.88 76.9 27.39 76.9 27.39"/><polygon class="cls-2" points="76.48 26.65 76.9 27.39 77.79 26.88 76.79 26.47 76.48 26.65"/><polygon class="cls-3" points="76.34 26.29 76.29 26.3 76.41 26.51 76.36 26.3 76.34 26.29"/><polygon class="cls-3" points="78.34 27.02 78.41 26.89 78.03 26.63 78.34 27.02"/><polygon class="cls-2" points="76.35 26.29 76.36 26.3 76.79 26.47 77.54 26.02 77.85 26.4 79.05 25.64 79.07 25.61 76.35 26.29"/><polygon class="cls-2" points="76.41 26.51 76.48 26.65 76.79 26.47 76.36 26.3 76.41 26.51"/><polygon class="cls-2" points="79.11 25.61 79.05 25.64 78.41 26.89 78.83 27.18 78.83 27.18 79.11 25.61"/><polygon class="cls-3" points="77.77 26.45 78.03 26.63 77.85 26.4 77.77 26.45"/><polygon class="cls-2" points="78.03 26.63 78.41 26.89 79.05 25.64 77.85 26.4 78.03 26.63"/><path class="cls-2" d="M98.13,68.79a2.07,2.07,0,0,0-.79-.62,2.36,2.36,0,0,0-1-.22,2.65,2.65,0,0,0-1.13.23,2.6,2.6,0,0,0-.87.64,2.93,2.93,0,0,0-.56,1,3.41,3.41,0,0,0-.2,1.17,3.22,3.22,0,0,0,.19,1.1,2.76,2.76,0,0,0,.54.92,2.54,2.54,0,0,0,.86.63,2.8,2.8,0,0,0,1.16.23,2.3,2.3,0,0,0,1.11-.26,2.39,2.39,0,0,0,.81-.73l.84.64a3.3,3.3,0,0,1-.29.33,2.9,2.9,0,0,1-.55.43,3.9,3.9,0,0,1-.83.38,3.54,3.54,0,0,1-1.12.16,3.64,3.64,0,0,1-1.58-.33,3.86,3.86,0,0,1-2.21-3.48,4.33,4.33,0,0,1,.28-1.58,3.73,3.73,0,0,1,.79-1.25,3.51,3.51,0,0,1,1.21-.82A4.07,4.07,0,0,1,96.38,67a3.83,3.83,0,0,1,1.43.28,2.68,2.68,0,0,1,1.15.87Z"/><path class="cls-2" d="M105.58,74.76a4,4,0,0,1-1.55-.3,3.62,3.62,0,0,1-1.21-.82,3.77,3.77,0,0,1-.79-1.23,4.24,4.24,0,0,1,0-3.06,3.78,3.78,0,0,1,.79-1.23A3.62,3.62,0,0,1,104,67.3a4.21,4.21,0,0,1,3.1,0,3.62,3.62,0,0,1,1.21.82,3.79,3.79,0,0,1,.79,1.23,4.24,4.24,0,0,1,0,3.06,3.78,3.78,0,0,1-.79,1.23,3.62,3.62,0,0,1-1.21.82A4,4,0,0,1,105.58,74.76Zm0-.94a2.68,2.68,0,0,0,2-.86,2.79,2.79,0,0,0,.56-.93,3.39,3.39,0,0,0,0-2.28,2.79,2.79,0,0,0-.56-.93,2.76,2.76,0,0,0-4,0,2.78,2.78,0,0,0-.56.93A3.38,3.38,0,0,0,103,72a2.78,2.78,0,0,0,.56.93,2.68,2.68,0,0,0,2,.86Z"/><path class="cls-2" d="M112.65,67.19h1.49l2.34,5.58h0l2.32-5.58h1.49v7.38h-1V68.51h0l-2.49,6.06h-.67l-2.49-6.06h0v6.06h-1Z"/><path class="cls-2" d="M124,67.19h2.59a3,3,0,0,1,1.17.19,2,2,0,0,1,.72.49,1.67,1.67,0,0,1,.37.67,2.5,2.5,0,0,1,0,1.43,1.67,1.67,0,0,1-.37.67,2,2,0,0,1-.72.49,3,3,0,0,1-1.17.19H125v3.25h-1Zm1,3.25h1.31a3.57,3.57,0,0,0,.58,0,1.55,1.55,0,0,0,.51-.17.94.94,0,0,0,.36-.36,1.44,1.44,0,0,0,0-1.22.94.94,0,0,0-.36-.36,1.55,1.55,0,0,0-.51-.17,3.57,3.57,0,0,0-.58,0H125Z"/><path class="cls-2" d="M133.62,67.19h.91l3.16,7.38h-1.17l-.74-1.82h-3.51l-.73,1.82h-1.17Zm1.79,4.68L134,68.48h0l-1.4,3.39Z"/><path class="cls-2" d="M140.72,73a1.64,1.64,0,0,0,.69.6,2.07,2.07,0,0,0,.87.19,1.78,1.78,0,0,0,.51-.08,1.55,1.55,0,0,0,.47-.23,1.27,1.27,0,0,0,.35-.39,1,1,0,0,0,.14-.53.8.8,0,0,0-.27-.65,2.33,2.33,0,0,0-.67-.37q-.4-.15-.87-.29a3.55,3.55,0,0,1-.88-.39,2.14,2.14,0,0,1-.67-.67,2.09,2.09,0,0,1-.27-1.14,2,2,0,0,1,.58-1.35,2.45,2.45,0,0,1,.78-.51,2.89,2.89,0,0,1,1.14-.2,4,4,0,0,1,1.16.17,2,2,0,0,1,1,.68l-.81.74a1.36,1.36,0,0,0-.53-.47,1.69,1.69,0,0,0-.78-.18,1.89,1.89,0,0,0-.69.11,1.24,1.24,0,0,0-.44.28,1,1,0,0,0-.23.37,1.13,1.13,0,0,0-.07.36.93.93,0,0,0,.27.72,2.11,2.11,0,0,0,.67.41,8.17,8.17,0,0,0,.88.28,3.75,3.75,0,0,1,.88.35,2,2,0,0,1,.67.6,1.78,1.78,0,0,1,.27,1,2.21,2.21,0,0,1-.2,1,2.13,2.13,0,0,1-.55.72,2.42,2.42,0,0,1-.81.45,3.15,3.15,0,0,1-1,.16,3.64,3.64,0,0,1-1.34-.25,2.21,2.21,0,0,1-1-.77Z"/><path class="cls-2" d="M148.38,73a1.64,1.64,0,0,0,.69.6,2.07,2.07,0,0,0,.87.19,1.78,1.78,0,0,0,.51-.08,1.55,1.55,0,0,0,.47-.23,1.27,1.27,0,0,0,.35-.39,1,1,0,0,0,.14-.53.8.8,0,0,0-.27-.65,2.33,2.33,0,0,0-.67-.37q-.4-.15-.87-.29a3.55,3.55,0,0,1-.88-.39,2.14,2.14,0,0,1-.67-.67,2.09,2.09,0,0,1-.27-1.14,2,2,0,0,1,.58-1.35,2.45,2.45,0,0,1,.78-.51,2.89,2.89,0,0,1,1.14-.2,4,4,0,0,1,1.16.17,2,2,0,0,1,1,.68l-.81.74a1.36,1.36,0,0,0-.53-.47,1.69,1.69,0,0,0-.78-.18,1.89,1.89,0,0,0-.69.11,1.24,1.24,0,0,0-.44.28,1,1,0,0,0-.23.37,1.13,1.13,0,0,0-.07.36.93.93,0,0,0,.27.72,2.11,2.11,0,0,0,.67.41,8.17,8.17,0,0,0,.88.28,3.75,3.75,0,0,1,.88.35,2,2,0,0,1,.67.6,1.78,1.78,0,0,1,.27,1,2.21,2.21,0,0,1-.2,1,2.13,2.13,0,0,1-.55.72,2.42,2.42,0,0,1-.81.45,3.15,3.15,0,0,1-1,.16,3.64,3.64,0,0,1-1.34-.25,2.21,2.21,0,0,1-1-.77Z"/><path class="cls-2" d="M155.82,67.19h1v7.38h-1Z"/><path class="cls-2" d="M164,74.76a4,4,0,0,1-1.55-.3,3.62,3.62,0,0,1-1.21-.82,3.77,3.77,0,0,1-.79-1.23,4.24,4.24,0,0,1,0-3.06,3.78,3.78,0,0,1,.79-1.23,3.62,3.62,0,0,1,1.21-.82,4.21,4.21,0,0,1,3.1,0,3.62,3.62,0,0,1,1.21.82,3.79,3.79,0,0,1,.79,1.23,4.24,4.24,0,0,1,0,3.06,3.78,3.78,0,0,1-.79,1.23,3.62,3.62,0,0,1-1.21.82A4,4,0,0,1,164,74.76Zm0-.94a2.68,2.68,0,0,0,2-.86,2.79,2.79,0,0,0,.56-.93,3.39,3.39,0,0,0,0-2.28,2.79,2.79,0,0,0-.56-.93,2.76,2.76,0,0,0-4,0,2.78,2.78,0,0,0-.56.93,3.38,3.38,0,0,0,0,2.28,2.78,2.78,0,0,0,.56.93,2.68,2.68,0,0,0,2,.86Z"/><path class="cls-2" d="M171.11,67.19h1.31l4.06,6.06h0V67.19h1v7.38h-1.27l-4.1-6.06h0v6.06h-1Z"/><path class="cls-2" d="M185.85,70.88a1.77,1.77,0,0,1,.15-.72,1.88,1.88,0,0,1,1-1,1.84,1.84,0,0,1,1.44,0,1.88,1.88,0,0,1,1,1,1.84,1.84,0,0,1,0,1.44,1.88,1.88,0,0,1-1,1,1.84,1.84,0,0,1-1.44,0,1.88,1.88,0,0,1-1-1A1.78,1.78,0,0,1,185.85,70.88Z"/><path class="cls-2" d="M197.87,67.19h1v7.38h-1Z"/><path class="cls-2" d="M202.63,67.19h1.31L208,73.26h0V67.19h1v7.38h-1.27l-4.1-6.06h0v6.06h-1Z"/><path class="cls-2" d="M212.62,67.19h2.57a4.76,4.76,0,0,1,1.37.18,3.65,3.65,0,0,1,1,.47,3,3,0,0,1,.72.68,3.61,3.61,0,0,1,.45.79,4,4,0,0,1,.24.81,4.34,4.34,0,0,1,.07.75,3.72,3.72,0,0,1-.26,1.37,3.45,3.45,0,0,1-.77,1.18,3.78,3.78,0,0,1-1.27.83,4.54,4.54,0,0,1-1.75.31h-2.41Zm1,6.44h1.26a4.13,4.13,0,0,0,1.2-.17,2.91,2.91,0,0,0,1-.52,2.48,2.48,0,0,0,.68-.86,2.73,2.73,0,0,0,.25-1.2,3.6,3.6,0,0,0-.11-.83,2.49,2.49,0,0,0-.43-.9,2.56,2.56,0,0,0-.88-.72,3.12,3.12,0,0,0-1.46-.3h-1.5Z"/><path class="cls-2" d="M222.38,67.19h4.76v.94h-3.76v2.2h3.5v.94h-3.5v2.37h3.95v.94h-4.95Z"/><path class="cls-2" d="M230.61,67.19h2.59a3,3,0,0,1,1.17.19,2,2,0,0,1,.72.49,1.67,1.67,0,0,1,.37.67,2.51,2.51,0,0,1,0,1.43,1.67,1.67,0,0,1-.37.67,2,2,0,0,1-.72.49,3,3,0,0,1-1.17.19h-1.59v3.25h-1Zm1,3.25h1.31a3.58,3.58,0,0,0,.58,0,1.55,1.55,0,0,0,.51-.17.94.94,0,0,0,.36-.36,1.44,1.44,0,0,0,0-1.22.94.94,0,0,0-.36-.36,1.55,1.55,0,0,0-.51-.17,3.58,3.58,0,0,0-.58,0h-1.31Z"/><path class="cls-2" d="M238.65,67.19h4.76v.94h-3.76v2.2h3.5v.94h-3.5v2.37h3.95v.94h-4.95Z"/><path class="cls-2" d="M246.88,67.19h1.31l4.06,6.06h0V67.19h1v7.38H252l-4.11-6.06h0v6.06h-1Z"/><path class="cls-2" d="M256.88,67.19h2.57a4.76,4.76,0,0,1,1.37.18,3.65,3.65,0,0,1,1,.47,3,3,0,0,1,.72.68,3.61,3.61,0,0,1,.45.79,4,4,0,0,1,.24.81,4.34,4.34,0,0,1,.07.75,3.72,3.72,0,0,1-.26,1.37,3.45,3.45,0,0,1-.77,1.18,3.78,3.78,0,0,1-1.27.83,4.54,4.54,0,0,1-1.75.31h-2.41Zm1,6.44h1.26a4.13,4.13,0,0,0,1.2-.17,2.91,2.91,0,0,0,1-.52,2.48,2.48,0,0,0,.68-.86,2.73,2.73,0,0,0,.25-1.2,3.6,3.6,0,0,0-.11-.83,2.49,2.49,0,0,0-.43-.9,2.56,2.56,0,0,0-.88-.72,3.12,3.12,0,0,0-1.46-.3h-1.5Z"/><path class="cls-2" d="M266.63,67.19h4.76v.94h-3.76v2.2h3.5v.94h-3.5v2.37h3.95v.94h-4.95Z"/><path class="cls-2" d="M274.86,67.19h1.31l4.06,6.06h0V67.19h1v7.38H280l-4.11-6.06h0v6.06h-1Z"/><path class="cls-2" d="M290.15,68.79a2.07,2.07,0,0,0-.79-.62,2.36,2.36,0,0,0-1-.22,2.65,2.65,0,0,0-1.13.23,2.61,2.61,0,0,0-.87.64,2.93,2.93,0,0,0-.56,1,3.42,3.42,0,0,0-.2,1.17,3.24,3.24,0,0,0,.19,1.1,2.76,2.76,0,0,0,.54.92,2.53,2.53,0,0,0,.86.63,2.79,2.79,0,0,0,1.16.23,2.3,2.3,0,0,0,1.12-.26,2.39,2.39,0,0,0,.81-.73l.84.64a3.33,3.33,0,0,1-.29.33,2.93,2.93,0,0,1-.55.43,3.9,3.9,0,0,1-.83.38,3.54,3.54,0,0,1-1.12.16,3.64,3.64,0,0,1-1.58-.33,3.8,3.8,0,0,1-2-2.1,3.84,3.84,0,0,1-.26-1.38,4.31,4.31,0,0,1,.28-1.58,3.73,3.73,0,0,1,.79-1.25,3.51,3.51,0,0,1,1.21-.82A4.07,4.07,0,0,1,288.4,67a3.83,3.83,0,0,1,1.43.28,2.67,2.67,0,0,1,1.15.87Z"/><path class="cls-2" d="M294.22,67.19H299v.94h-3.76v2.2h3.5v.94h-3.5v2.37h3.95v.94h-4.95Z"/><path class="cls-2" d="M307,70.88a1.78,1.78,0,0,1,.15-.72,1.89,1.89,0,0,1,.4-.58,1.86,1.86,0,0,1,.58-.4,1.84,1.84,0,0,1,1.44,0,1.87,1.87,0,0,1,1,1,1.84,1.84,0,0,1,0,1.44,1.87,1.87,0,0,1-1,1,1.84,1.84,0,0,1-1.44,0,1.86,1.86,0,0,1-.58-.4,1.89,1.89,0,0,1-.4-.58A1.78,1.78,0,0,1,307,70.88Z"/><path class="cls-2" d="M324.18,68.79a2.07,2.07,0,0,0-.79-.62,2.36,2.36,0,0,0-1-.22,2.65,2.65,0,0,0-1.13.23,2.61,2.61,0,0,0-.87.64,2.93,2.93,0,0,0-.56,1,3.42,3.42,0,0,0-.2,1.17,3.24,3.24,0,0,0,.19,1.1,2.76,2.76,0,0,0,.54.92,2.53,2.53,0,0,0,.86.63,2.79,2.79,0,0,0,1.16.23,2.3,2.3,0,0,0,1.12-.26,2.39,2.39,0,0,0,.81-.73l.84.64a3.33,3.33,0,0,1-.29.33,2.93,2.93,0,0,1-.55.43,3.9,3.9,0,0,1-.83.38,3.54,3.54,0,0,1-1.12.16,3.64,3.64,0,0,1-1.58-.33,3.8,3.8,0,0,1-2-2.1,3.84,3.84,0,0,1-.26-1.38,4.31,4.31,0,0,1,.28-1.58,3.73,3.73,0,0,1,.79-1.25,3.51,3.51,0,0,1,1.21-.82,4.07,4.07,0,0,1,1.56-.29,3.83,3.83,0,0,1,1.43.28,2.67,2.67,0,0,1,1.15.87Z"/><path class="cls-2" d="M328.25,67.19h1v3.06h3.82V67.19h1v7.38h-1V71.19h-3.82v3.38h-1Z"/><path class="cls-2" d="M341.22,74.76a4,4,0,0,1-1.55-.3,3.61,3.61,0,0,1-1.21-.82,3.77,3.77,0,0,1-.79-1.23,4.23,4.23,0,0,1,0-3.06,3.78,3.78,0,0,1,.79-1.23,3.62,3.62,0,0,1,1.21-.82,4.21,4.21,0,0,1,3.1,0,3.62,3.62,0,0,1,1.21.82,3.79,3.79,0,0,1,.79,1.23,4.24,4.24,0,0,1,0,3.06,3.78,3.78,0,0,1-.79,1.23,3.61,3.61,0,0,1-1.21.82A4,4,0,0,1,341.22,74.76Zm0-.94a2.68,2.68,0,0,0,2-.86,2.78,2.78,0,0,0,.56-.93,3.38,3.38,0,0,0,0-2.28,2.78,2.78,0,0,0-.56-.93,2.76,2.76,0,0,0-4,0,2.78,2.78,0,0,0-.56.93,3.4,3.4,0,0,0,0,2.28,2.78,2.78,0,0,0,.56.93,2.68,2.68,0,0,0,2,.86Z"/><path class="cls-2" d="M348.37,67.19h1v7.38h-1Z"/><path class="cls-2" d="M358.26,68.79a2.07,2.07,0,0,0-.79-.62,2.36,2.36,0,0,0-1-.22,2.65,2.65,0,0,0-1.13.23,2.61,2.61,0,0,0-.87.64,2.93,2.93,0,0,0-.56,1,3.42,3.42,0,0,0-.2,1.17,3.24,3.24,0,0,0,.19,1.1,2.76,2.76,0,0,0,.54.92,2.53,2.53,0,0,0,.86.63,2.79,2.79,0,0,0,1.16.23,2.3,2.3,0,0,0,1.12-.26,2.39,2.39,0,0,0,.81-.73l.84.64a3.33,3.33,0,0,1-.29.33,2.93,2.93,0,0,1-.55.43,3.9,3.9,0,0,1-.83.38,3.54,3.54,0,0,1-1.12.16,3.64,3.64,0,0,1-1.58-.33,3.8,3.8,0,0,1-2-2.1,3.84,3.84,0,0,1-.26-1.38,4.31,4.31,0,0,1,.28-1.58,3.73,3.73,0,0,1,.79-1.25A3.51,3.51,0,0,1,355,67.3a4.07,4.07,0,0,1,1.56-.29,3.83,3.83,0,0,1,1.43.28,2.67,2.67,0,0,1,1.15.87Z"/><path class="cls-2" d="M362.33,67.19h4.76v.94h-3.76v2.2h3.5v.94h-3.5v2.37h3.95v.94h-4.95Z"/></g></g></svg>